<svg width="4654" height="364" viewBox="0 0 4654 364" fill="none" xmlns="http://www.w3.org/2000/svg">
<path d="M2 178.277V363H4653V112C4653 112 4642.75 122.835 4609.99 129.389C4559.55 139.481 4532.48 161.374 4479.96 158.263C4388.06 152.819 4268.42 123.156 4181.4 123.156C4094.38 123.155 4046.22 149.685 3929.84 165.153C3811.84 180.838 3640.28 142.842 3640.28 142.842C3506.25 131.686 3462.26 157.303 3354.72 165.153C3267.79 171.499 3233.65 191.078 3146.18 190.745C3066.11 190.441 3002.15 163.84 2916.63 158.263C2867.08 155.031 2858.83 155.493 2811.6 145.138C2736.93 128.767 2712.26 131.142 2634.07 125.124C2557.06 119.198 2473.72 162.75 2396.51 167.45C2346.54 170.492 2016.93 123.156 1957.92 127.749C1903.39 131.994 1809.39 158.919 1728.87 165.153C1650.51 171.22 1712.37 167.45 1626.85 173.027C1559.97 177.389 1604.9 175.506 1537.83 178.277C1382.69 184.687 1424.31 178.277 1381.8 178.277C1337.19 178.277 1312.04 174.569 1268.77 167.45C1223.16 159.945 1200.93 148.772 1155.75 140.217C1123.75 134.158 1105.88 129.508 1072.73 127.421C1016.42 123.875 983.396 129.584 929.199 140.217C877.969 150.268 854.814 165.239 805.173 178.277C733.828 197.016 693.274 209.509 617.132 216.337C526.217 224.49 473.115 216.964 382.582 207.15C312.48 199.551 276.504 184.282 206.044 178.277C127.024 171.542 2 178.277 2 178.277Z" fill="white" stroke="white"/>
<path d="M4649 76.4626V284H1V2C1 2 11.2446 14.1735 43.9814 21.5371C94.3877 32.8751 121.441 57.4716 173.926 53.9763C265.766 47.8601 385.334 14.5334 472.297 14.5333C559.26 14.5333 607.393 44.3399 723.689 61.7177C841.622 79.3401 1013.06 36.651 1013.06 36.651C1147.01 24.1177 1190.97 52.8986 1298.44 61.7177C1385.32 68.847 1419.44 90.8441 1506.85 90.4705C1586.87 90.1285 1650.79 60.2431 1736.25 53.9763C1785.77 50.3453 1794.01 50.8644 1841.21 39.2313C1915.83 20.8384 1940.49 23.5061 2018.63 16.745C2095.59 10.0864 2178.88 59.018 2256.03 64.2979C2305.97 67.7156 2635.37 14.5334 2694.34 19.6941C2748.84 24.463 2842.78 54.7138 2923.24 61.7177C3001.55 68.5341 2939.74 64.2979 3025.2 70.5647C3092.03 75.4654 3047.13 73.3491 3114.16 76.4626C3269.2 83.6642 3227.61 76.4626 3270.09 76.4626C3314.67 76.4626 3339.81 72.2967 3383.04 64.2979C3428.62 55.8661 3450.85 43.3133 3496 33.7018C3527.97 26.8944 3545.83 21.6708 3578.96 19.3253C3635.23 15.3414 3668.24 21.756 3722.4 33.7018C3773.6 44.994 3796.74 61.814 3846.35 76.4626C3917.64 97.5156 3958.17 111.552 4034.26 119.223C4125.12 128.383 4178.19 119.928 4268.66 108.902C4338.72 100.364 4374.67 83.2096 4445.09 76.4626C4524.06 68.896 4649 76.4626 4649 76.4626Z" fill="white" fill-opacity="0.3" stroke="white"/>
<path d="M4270 134.94V302H2V75C2 75 11.4072 84.7993 41.4673 90.7267C87.7529 99.8534 112.594 119.653 160.788 116.839C245.12 111.916 354.913 85.089 434.766 85.0889C514.619 85.0888 558.817 109.082 665.605 123.071C773.896 137.256 931.323 102.893 931.323 102.893C1054.31 92.8039 1094.68 115.972 1193.37 123.071C1273.15 128.809 1304.47 146.516 1384.74 146.216C1458.21 145.94 1516.91 121.884 1595.39 116.839C1640.86 113.916 1648.42 114.334 1691.76 104.97C1760.28 90.1642 1782.92 92.3116 1854.68 86.8692C1925.35 81.5093 2001.82 120.897 2072.67 125.148C2118.53 127.899 2420.99 85.089 2475.15 89.2431C2525.19 93.0819 2611.45 117.433 2685.33 123.071C2757.24 128.558 2700.48 125.148 2778.95 130.192C2840.32 134.137 2799.09 132.433 2860.64 134.94C3003 140.737 2964.82 134.94 3003.83 134.94C3044.76 134.94 3067.84 131.586 3107.54 125.148C3149.4 118.36 3169.8 108.256 3211.26 100.519C3240.62 95.0391 3257.02 90.8343 3287.44 88.9463C3339.11 85.7394 3369.42 90.9029 3419.15 100.519C3466.17 109.609 3487.41 123.148 3532.97 134.94C3598.44 151.887 3635.65 163.185 3705.52 169.361C3788.95 176.734 3837.68 169.928 3920.76 161.052C3985.09 154.18 4018.1 140.371 4082.76 134.94C4155.27 128.849 4270 134.94 4270 134.94Z" fill="white" fill-opacity="0.5" stroke="white" stroke-width="3"/>
</svg>
