<?xml version="1.0" standalone="no"?>
<!DOCTYPE svg PUBLIC "-//W3C//DTD SVG 20010904//EN"
 "http://www.w3.org/TR/2001/REC-SVG-20010904/DTD/svg10.dtd">
<svg version="1.0" xmlns="http://www.w3.org/2000/svg"
 width="300.000000pt" height="75.000000pt" viewBox="0 0 300.000000 75.000000"
 preserveAspectRatio="xMidYMid meet">

<g transform="translate(0.000000,75.000000) scale(0.100000,-0.100000)"
fill="#000000" stroke="none">
<path d="M117 736 c-50 -18 -76 -42 -98 -91 -16 -35 -19 -68 -19 -268 0 -281
10 -314 105 -358 36 -17 70 -19 340 -19 339 0 356 4 411 76 29 37 29 38 32
201 l3 163 -230 0 -231 0 0 -75 0 -75 125 0 125 0 0 -38 c0 -21 -5 -43 -12
-50 -17 -17 -429 -17 -446 0 -17 17 -17 329 0 346 9 9 96 12 330 12 l318 0 0
95 0 95 -357 0 c-276 -1 -367 -4 -396 -14z"/>
<path d="M950 655 l0 -95 173 -2 172 -3 3 -277 2 -278 105 0 105 0 0 280 0
280 194 0 195 0 -56 95 -55 95 -419 0 -419 0 0 -95z"/>
<path d="M1870 746 c0 -2 96 -170 213 -373 l213 -368 135 -3 134 -3 112 193
c61 106 158 275 217 376 l106 183 -118 -3 -117 -3 -155 -267 c-85 -147 -161
-273 -168 -280 -18 -17 -11 -27 -193 287 l-153 265 -113 0 c-62 0 -113 -2
-113 -4z"/>
</g>
</svg>
