<svg preserveAspectRatio="xMidYMid meet" viewBox="8.886000000000001 137.4621513944223 4416.342 829.207171314741" xmlns="http://www.w3.org/2000/svg" version="1.0" style="max-height: 500px" width="4416.342" height="829.207171314741">

<g stroke="none" fill="#000000" transform="translate(0.000000,1113.000000) scale(0.100000,-0.100000)">
<path d="M1385 9570 c-347 -23 -680 -84 -982 -181 -85 -27 -93 -32 -93 -56 0&#10;-21 4 -24 23 -20 137 33 254 42 537 42 254 -1 315 -4 440 -23 355 -55 767&#10;-186 1020 -325 291 -159 580 -370 881 -643 200 -182 416 -425 770 -870 496&#10;-622 1316 -1705 1824 -2409 705 -977 922 -1255 1295 -1660 131 -142 404 -405&#10;445 -428 13 -7 15 278 15 2633 l0 2640 -365 0 -365 0 0 -1331 0 -1331 -108&#10;139 c-59 76 -285 372 -502 658 -723 955 -904 1178 -1314 1625 -509 554 -779&#10;787 -1161 1001 -618 346 -1288 524 -2035 543 -107 2 -253 1 -325 -4z"/>
<path d="M2560 5761 l0 -2641 365 0 365 0 2 1326 3 1327 116 -149 c63 -82 286&#10;-374 494 -649 742 -980 919 -1197 1392 -1707 511 -551 800 -778 1298 -1023&#10;278 -136 542 -231 849 -305 729 -176 1483 -167 2151 25 204 59 205 59 205 91&#10;0 23 -3 25 -27 20 -179 -37 -223 -41 -513 -41 -188 0 -328 5 -385 13 -492 70&#10;-912 216 -1271 441 -423 266 -778 579 -1140 1006 -402 472 -1544 1964 -2134&#10;2785 -681 949 -1010 1370 -1349 1724 -133 138 -317 315 -379 364 l-42 34 0&#10;-2641z"/>
<path d="M13785 8334 c-286 -22 -485 -58 -683 -123 -270 -89 -449 -197 -633&#10;-380 -163 -163 -221 -252 -292 -441 -58 -154 -81 -297 -81 -485 0 -213 28&#10;-346 110 -524 91 -198 230 -352 479 -532 293 -213 433 -292 1050 -599 264&#10;-131 517 -261 563 -289 332 -201 447 -354 445 -596 -1 -203 -116 -406 -311&#10;-551 -151 -112 -325 -184 -521 -218 -109 -18 -367 -21 -506 -6 -288 33 -659&#10;141 -1040 302 -77 33 -146 62 -152 65 -10 4 -13 -63 -13 -315 l0 -319 53 -22&#10;c309 -131 629 -214 1019 -267 154 -21 665 -30 839 -15 393 34 633 90 869 202&#10;431 206 775 576 884 952 51 176 77 459 57 636 -36 330 -171 574 -447 808 -281&#10;238 -498 366 -1094 643 -371 173 -536 257 -667 342 -568 367 -368 1010 357&#10;1144 117 22 447 25 590 5 355 -48 541 -107 963 -305 l97 -45 0 324 0 324 -52&#10;15 c-392 113 -867 208 -1235 246 -182 19 -541 32 -648 24z"/>
<path d="M31250 8329 c-338 -24 -624 -96 -873 -220 -305 -152 -551 -404 -656&#10;-673 -79 -203 -107 -366 -98 -581 8 -202 44 -347 125 -504 100 -194 223 -328&#10;457 -497 315 -226 442 -299 1058 -604 621 -307 795 -416 907 -567 65 -89 91&#10;-163 97 -283 19 -346 -274 -662 -725 -783 -116 -31 -118 -31 -367 -31 -217 0&#10;-266 3 -370 22 -309 58 -580 143 -942 296 -73 31 -135 56 -138 56 -3 0 -5&#10;-143 -5 -318 l0 -319 106 -42 c315 -126 641 -207 1019 -253 175 -21 774 -18&#10;945 5 454 62 676 137 957 326 205 139 355 287 482 478 156 233 223 482 224&#10;823 0 367 -111 632 -370 881 -263 253 -582 447 -1198 729 -261 119 -536 260&#10;-645 331 -378 244 -439 629 -145 907 174 164 402 246 720 259 271 11 640 -44&#10;895 -132 95 -34 283 -115 450 -194 36 -17 71 -31 78 -31 9 0 12 70 12 319 l0&#10;319 -148 41 c-676 188 -1353 276 -1852 240z"/>
<path d="M35260 8329 c-407 -29 -760 -133 -1015 -299 -406 -265 -615 -643&#10;-618 -1115 0 -145 12 -239 50 -365 80 -272 232 -473 510 -676 321 -234 462&#10;-315 1098 -629 476 -236 622 -318 759 -427 171 -137 245 -289 234 -482 -9&#10;-150 -71 -283 -195 -416 -147 -157 -347 -264 -596 -317 -128 -28 -508 -25&#10;-676 6 -290 52 -593 147 -943 297 -70 30 -129 54 -132 54 -3 0 -6 -143 -6&#10;-319 l0 -318 128 -51 c299 -118 584 -189 957 -239 188 -25 805 -25 985 0 344&#10;48 526 95 715 186 466 223 814 619 909 1036 42 181 52 478 23 641 -52 286&#10;-190 511 -447 729 -278 235 -548 391 -1165 673 -210 96 -412 199 -539 276&#10;-187 112 -307 246 -354 396 -26 84 -22 238 8 315 89 230 306 387 633 457 136&#10;29 460 31 642 5 308 -46 492 -100 761 -222 93 -42 193 -88 222 -101 l52 -24 0&#10;324 0 324 -148 41 c-675 187 -1354 275 -1852 240z"/>
<path d="M39980 8329 c-475 -49 -937 -212 -1274 -451 -535 -380 -849 -962&#10;-936 -1737 -54 -481 -14 -1020 106 -1424 276 -933 976 -1510 2024 -1668 216&#10;-33 606 -34 810 -2 616 97 1098 322 1459 684 322 322 532 736 630 1239 56 290&#10;80 656 62 944 -20 302 -45 465 -106 702 -201 768 -699 1308 -1442 1564 -212&#10;73 -455 126 -692 150 -121 12 -518 11 -641 -1z m475 -629 c247 -29 436 -120&#10;597 -288 254 -265 399 -671 448 -1247 13 -157 13 -615 0 -786 -40 -504 -154&#10;-902 -342 -1184 -110 -166 -286 -315 -455 -385 -132 -55 -243 -73 -428 -67&#10;-189 5 -274 24 -410 91 -427 210 -676 721 -745 1531 -17 194 -15 660 4 850 54&#10;558 194 936 440 1193 225 235 526 333 891 292z"/>
<path d="M8300 5685 l0 -2585 1765 0 1765 0 0 292 0 291 -167 -7 c-93 -3 -348&#10;-18 -568 -31 -220 -14 -526 -29 -680 -33 -271 -8 -755 0 -795 13 -20 6 -20 17&#10;-20 931 l0 924 23 1 c721 21 1385 10 1705 -27 l52 -6 0 307 0 308 -62 -7&#10;c-357 -39 -889 -53 -1343 -37 -176 6 -332 14 -347 17 l-28 6 0 848 0 849 58 8&#10;c31 4 269 8 527 7 392 0 539 -5 890 -27 231 -15 495 -30 588 -33 l167 -7 0&#10;291 0 292 -1765 0 -1765 0 0 -2585z"/>
<path d="M16430 5685 l0 -2585 655 0 655 0 0 948 0 947 192 -3 c704 -13 1428&#10;107 1811 299 182 92 277 164 383 292 193 231 295 473 340 806 39 294 -4 721&#10;-97 973 -174 474 -513 771 -988 868 -179 36 -330 40 -1658 40 l-1293 0 0&#10;-2585z m1916 2015 c320 -26 556 -99 719 -223 136 -103 220 -280 266 -562 20&#10;-118 17 -437 -4 -554 -35 -191 -109 -363 -196 -454 -55 -59 -200 -151 -292&#10;-187 -219 -84 -420 -113 -795 -113 -149 0 -281 4 -293 8 l-22 7 7 1031 c4 568&#10;7 1033 8 1034 1 1 56 6 121 11 172 13 333 14 481 2z"/>
<path d="M20915 8258 c-3 -7 -4 -1169 -3 -2583 l3 -2570 658 -3 657 -2 0 1070&#10;0 1070 373 0 373 0 51 -92 c136 -248 351 -702 598 -1263 70 -159 176 -400 236&#10;-535 l108 -245 700 -3 c386 -1 701 0 701 3 0 3 -121 233 -268 512 -489 924&#10;-637 1223 -905 1830 l-45 101 121 60 c67 34 158 84 202 114 106 70 279 242&#10;344 343 157 240 231 516 231 855 0 512 -267 931 -744 1165 -205 100 -409 155&#10;-650 175 -200 16 -2735 14 -2741 -2z m2005 -558 c285 -36 519 -134 652 -273&#10;123 -128 198 -381 198 -667 0 -252 -57 -470 -158 -607 -87 -118 -281 -230&#10;-486 -283 -166 -43 -327 -59 -638 -67 l-268 -6 0 950 0 951 98 7 c53 3 108 8&#10;122 10 46 7 394 -4 480 -15z"/>
<path d="M25810 5685 l0 -2585 1763 2 1762 3 3 289 2 289 -162 -7 c-90 -4&#10;-345 -18 -568 -31 -581 -36 -919 -45 -1223 -34 -142 5 -263 12 -268 15 -5 3&#10;-9 392 -9 930 l0 924 23 1 c721 21 1385 10 1705 -27 l52 -6 0 307 0 308 -62&#10;-7 c-375 -40 -866 -54 -1338 -37 -179 6 -337 14 -352 17 l-28 6 0 848 0 849&#10;58 8 c31 4 269 8 527 7 392 0 539 -5 890 -27 231 -15 495 -30 588 -33 l167 -7&#10;-2 289 -3 289 -1762 3 -1763 2 0 -2585z"/>
<path d="M43415 4319 c-147 -15 -251 -66 -361 -174 -128 -126 -184 -257 -184&#10;-435 0 -105 18 -182 68 -280 46 -94 150 -202 243 -253 178 -99 411 -101 592&#10;-5 136 72 263 236 303 389 20 77 22 214 5 289 -71 299 -359 502 -666 469z&#10;m216 -75 c171 -51 307 -179 367 -347 37 -100 38 -259 4 -359 -111 -321 -472&#10;-469 -775 -317 -81 41 -194 154 -235 235 -109 216 -73 472 91 638 115 116 231&#10;165 393 166 64 0 120 -6 155 -16z"/>
<path d="M43240 3716 l0 -326 60 0 60 0 0 135 0 135 95 0 c106 0 156 -15 176&#10;-52 7 -12 16 -62 20 -110 4 -47 10 -91 14 -97 3 -6 33 -11 67 -11 51 0 59 2&#10;49 14 -7 8 -16 56 -22 108 -5 51 -12 102 -15 113 -8 26 -44 65 -61 65 -21 0&#10;-15 16 13 30 37 21 64 79 64 142 0 72 -24 117 -80 148 -43 24 -53 25 -242 28&#10;l-198 4 0 -326z m385 199 c19 -18 25 -35 25 -67 0 -85 -42 -108 -197 -108&#10;l-93 0 0 100 0 100 120 0 c115 0 122 -1 145 -25z"/>
</g>
</svg>