<?xml version="1.0" standalone="no"?>
<!DOCTYPE svg PUBLIC "-//W3C//DTD SVG 20010904//EN"
 "http://www.w3.org/TR/2001/REC-SVG-20010904/DTD/svg10.dtd">
<svg version="1.0" xmlns="http://www.w3.org/2000/svg"
 width="696.000000pt" height="79.000000pt" viewBox="0 0 696.000000 79.000000"
 preserveAspectRatio="xMidYMid meet">

<g transform="translate(0.000000,79.000000) scale(0.100000,-0.100000)"
fill="#000000" stroke="none">
<path d="M4060 783 c-91 -35 -153 -74 -216 -137 -104 -104 -154 -227 -140
-344 21 -179 144 -272 361 -272 140 0 259 40 302 101 l21 31 18 -37 c37 -78
148 -115 238 -81 25 9 50 24 56 32 11 12 17 9 47 -16 37 -33 87 -40 140 -19
15 6 69 10 118 10 l91 -2 12 48 c79 308 86 328 115 360 31 33 83 60 94 49 12
-12 2 -101 -22 -191 -55 -208 -65 -245 -65 -255 0 -6 31 -10 74 -10 l74 0 11
33 c5 17 27 97 47 177 20 80 45 159 55 175 24 41 75 88 87 81 25 -15 22 -76
-12 -202 -42 -161 -46 -182 -39 -217 11 -58 108 -86 175 -51 30 15 35 15 81
-1 77 -28 197 -18 280 23 128 63 202 180 201 318 -1 125 -67 184 -187 164 -92
-15 -111 -14 -102 8 16 40 57 213 52 218 -3 4 -48 0 -99 -8 -85 -12 -93 -15
-96 -37 -2 -15 0 -21 7 -17 17 11 14 -8 -24 -154 -90 -342 -105 -405 -105
-432 0 -18 -5 -28 -15 -28 -21 0 -20 6 26 188 39 151 41 165 29 203 -8 22 -29
53 -47 70 -54 47 -96 39 -187 -35 -30 -25 -58 -46 -60 -46 -2 0 -6 10 -10 23
-10 39 -52 77 -86 77 -29 0 -101 -37 -115 -60 -10 -17 -25 -11 -25 10 0 23 -5
24 -46 11 -24 -8 -102 -18 -161 -20 -20 -1 -15 -37 7 -52 21 -14 21 -14 -9
-129 -17 -63 -35 -135 -42 -160 -12 -49 -40 -80 -70 -80 -31 0 -32 -11 32 236
27 108 48 199 45 202 -3 3 -18 -1 -33 -8 -64 -29 -82 -30 -130 -4 -101 53
-222 16 -333 -103 -47 -50 -61 -61 -57 -43 4 14 10 35 13 47 6 22 6 22 -53 8
-32 -7 -84 -18 -116 -25 -69 -14 -85 -34 -60 -78 16 -27 16 -33 -1 -94 -30
-110 -99 -169 -181 -154 -54 11 -93 50 -111 114 -14 49 -15 68 -5 134 29 188
118 341 228 390 54 24 148 25 228 2 33 -9 69 -17 80 -18 25 -1 53 50 36 67
-13 13 -392 21 -421 10z m718 -300 l21 -18 -39 -149 c-33 -127 -43 -153 -71
-182 -74 -76 -130 -19 -109 111 14 85 72 199 118 230 44 30 53 31 80 8z m1299
-30 c25 -38 12 -157 -27 -241 -37 -78 -63 -109 -108 -129 -37 -15 -67 -10 -76
13 -3 9 8 68 25 133 17 64 37 140 44 169 18 67 20 70 58 80 42 11 65 5 84 -25z"/>
<path d="M188 774 c-15 -15 -8 -46 12 -51 25 -7 26 -32 4 -110 -9 -32 -23 -85
-30 -118 -13 -53 -45 -172 -90 -332 -10 -35 -21 -54 -34 -58 -23 -7 -50 -32
-50 -46 0 -6 58 -8 147 -7 129 3 148 5 151 20 2 10 -8 22 -25 30 -33 16 -33
11 4 153 l29 110 73 2 c84 3 181 25 229 53 18 11 35 20 38 20 14 0 -1 -106
-31 -227 -19 -76 -35 -144 -35 -151 0 -10 19 -12 76 -10 l76 3 39 118 c40 123
95 235 134 276 20 21 26 22 39 11 21 -17 20 -32 -4 -78 -75 -143 -19 -296 123
-342 54 -17 162 -8 218 18 54 25 121 89 140 133 l13 32 13 -48 c20 -67 48
-100 104 -124 87 -38 186 -18 275 54 32 27 44 32 44 20 0 -31 29 -72 60 -85
47 -19 114 -7 166 30 l45 32 22 -20 c54 -50 161 -67 235 -36 42 17 102 71 102
91 0 18 -5 17 -52 -17 -76 -56 -158 -31 -173 53 -14 73 -8 81 70 88 113 10
185 46 226 113 17 27 19 28 19 9 0 -18 -56 -253 -76 -315 -5 -16 3 -18 73 -18
l79 0 38 117 c42 131 96 240 138 280 l28 26 24 -26 c30 -32 36 -33 70 -6 39
31 34 74 -11 98 -41 21 -113 -25 -184 -119 -34 -45 -39 -49 -39 -27 0 28 16
114 25 140 9 23 -10 22 -41 -2 -14 -11 -48 -23 -77 -26 -45 -6 -59 -3 -100 20
-41 23 -57 27 -110 23 -123 -8 -235 -83 -286 -192 -35 -75 -44 -129 -30 -181
10 -34 9 -41 -7 -52 -11 -8 -30 -13 -44 -11 -33 4 -31 24 17 208 l39 145 51 3
c43 2 52 7 57 25 9 36 8 37 -39 37 -49 0 -54 9 -36 66 21 64 22 84 6 84 -8 0
-15 -6 -15 -14 0 -8 -18 -38 -41 -66 -44 -56 -103 -89 -156 -90 -26 0 -33 -4
-33 -20 0 -15 7 -20 26 -20 21 0 25 -3 19 -17 -4 -10 -15 -50 -25 -90 -35
-140 -47 -165 -106 -211 -109 -85 -160 -90 -196 -20 -49 94 -12 247 81 331 53
47 71 48 71 2 0 -37 28 -75 55 -75 9 0 27 11 40 25 33 33 33 78 -1 112 -24 24
-30 25 -102 21 -48 -3 -95 -13 -124 -26 -60 -26 -146 -106 -168 -154 l-17 -37
-17 54 c-22 70 -58 112 -121 141 -62 29 -138 31 -214 5 -54 -19 -55 -19 -82 1
-26 20 -27 20 -70 1 -42 -19 -97 -71 -146 -138 l-22 -30 5 55 c3 30 10 70 16
88 13 44 6 49 -35 23 -44 -27 -82 -29 -72 -3 4 9 10 42 12 72 6 75 -17 117
-83 150 -46 23 -60 25 -244 28 -107 2 -198 0 -202 -4z m344 -84 c52 -65 -5
-215 -95 -249 -37 -14 -107 -14 -107 0 0 12 43 178 62 243 l12 38 55 -4 c41
-4 59 -10 73 -28z m740 -204 c41 -62 -17 -320 -86 -384 -34 -33 -69 -37 -91
-11 -43 46 -9 259 56 354 40 58 97 77 121 41z m1189 14 c40 -22 11 -114 -50
-156 -43 -29 -110 -49 -123 -36 -23 23 72 169 127 192 26 11 24 11 46 0z"/>
<path d="M6397 770 c-35 -3 -61 -11 -67 -20 -11 -18 -4 -30 21 -30 24 0 24 -5
-7 -120 -136 -515 -137 -523 -73 -555 52 -27 133 -13 201 37 14 10 20 9 35 -5
85 -77 264 -57 352 38 35 38 40 48 31 65 -12 23 -59 27 -78 8 -7 -7 -12 -24
-12 -40 0 -57 -115 -81 -161 -32 -19 20 -24 36 -24 82 l0 57 65 6 c129 12 206
56 236 135 17 45 17 48 -2 83 -28 53 -74 73 -154 68 -83 -5 -146 -33 -210 -93
-83 -78 -124 -194 -100 -284 13 -48 5 -60 -39 -60 -23 0 -24 2 -18 51 4 28 16
83 27 123 12 39 26 87 31 106 5 19 29 112 54 206 25 94 45 174 45 178 0 7 -46
6 -153 -4z m407 -276 c22 -21 20 -52 -7 -98 -23 -42 -84 -80 -144 -92 -28 -6
-33 -4 -33 12 0 21 44 109 69 138 19 23 71 56 88 56 6 0 19 -7 27 -16z"/>
<path d="M3315 610 c-22 -3 -50 -11 -61 -18 -34 -18 -74 -71 -74 -98 0 -13 -6
-42 -12 -64 -11 -35 -19 -42 -74 -65 -75 -32 -119 -76 -135 -136 -15 -56 -7
-89 32 -133 57 -66 181 -83 287 -41 38 16 42 15 83 -5 36 -19 55 -22 114 -18
70 5 145 31 152 54 2 7 -17 9 -56 6 -80 -6 -108 2 -126 38 -15 29 -14 31 30
100 26 40 56 75 70 80 29 11 50 45 34 55 -17 11 -78 8 -94 -5 -8 -6 -22 -33
-31 -58 -21 -56 -43 -92 -56 -92 -14 0 -92 174 -79 178 6 2 34 15 63 30 43 22
55 34 65 65 11 31 10 44 -2 73 -7 18 -16 34 -18 34 -3 0 -20 6 -38 13 -21 8
-50 11 -74 7z m44 -40 c26 -13 32 -35 20 -69 -11 -31 -47 -61 -74 -61 -8 0
-20 11 -27 25 -13 29 4 78 36 100 24 18 23 18 45 5z m-169 -267 c7 -21 30 -72
52 -113 37 -69 38 -75 22 -87 -41 -30 -122 -5 -149 47 -29 57 -12 153 32 179
27 16 31 14 43 -26z"/>
</g>
</svg>
